<?xml version="1.0" encoding="UTF-8"?>
<svg version="1.1" xmlns="http://www.w3.org/2000/svg" width="400" height="300">
<path d="M0 0 C1.75183594 0.00386719 1.75183594 0.00386719 3.5390625 0.0078125 C4.70179687 0.00523437 5.86453125 0.00265625 7.0625 0 C10.1640625 0.1328125 10.1640625 0.1328125 13.1640625 1.1328125 C13.8240625 0.8028125 14.4840625 0.4728125 15.1640625 0.1328125 C18.1015625 -0.1796875 18.1015625 -0.1796875 21.1640625 0.1328125 C23.89357932 2.62746392 24.15965336 4.0775513 24.45703125 7.8046875 C24.43723001 9.16437285 24.40165452 10.5239059 24.3515625 11.8828125 C24.33125977 12.92888672 24.33125977 12.92888672 24.31054688 13.99609375 C24.275357 15.70866791 24.22155405 17.42084191 24.1640625 19.1328125 C22.1840625 19.4628125 20.2040625 19.7928125 18.1640625 20.1328125 C17.11429286 16.98350357 17.06274655 14.74466794 17.1015625 11.4453125 C17.11058594 10.45144531 17.11960937 9.45757812 17.12890625 8.43359375 C17.14050781 7.67433594 17.15210937 6.91507813 17.1640625 6.1328125 C16.1740625 6.1328125 15.1840625 6.1328125 14.1640625 6.1328125 C13.8340625 10.4228125 13.5040625 14.7128125 13.1640625 19.1328125 C11.5140625 19.4628125 9.8640625 19.7928125 8.1640625 20.1328125 C6.35290294 18.32165294 6.78206802 15.52003023 6.6015625 13.0703125 C6.51777344 11.96558594 6.43398437 10.86085937 6.34765625 9.72265625 C6.28707031 8.86800781 6.22648437 8.01335937 6.1640625 7.1328125 C5.5040625 7.1328125 4.8440625 7.1328125 4.1640625 7.1328125 C3.8340625 11.0928125 3.5040625 15.0528125 3.1640625 19.1328125 C0.8540625 19.1328125 -1.4559375 19.1328125 -3.8359375 19.1328125 C-3.86277737 16.15358657 -3.88269787 13.17459955 -3.8984375 10.1953125 C-3.90681641 9.34517578 -3.91519531 8.49503906 -3.92382812 7.61914062 C-3.92705078 6.81025391 -3.93027344 6.00136719 -3.93359375 5.16796875 C-3.93883057 4.419104 -3.94406738 3.67023926 -3.94946289 2.89868164 C-3.7554223 -0.11958847 -3.04462838 0.1425859 0 0 Z " fill="#46A2CC" transform="translate(69.8359375,143.8671875)"/>
<path d="M0 0 C2.0625 -0.04125 4.125 -0.0825 6.25 -0.125 C7.99023438 -0.15980469 7.99023438 -0.15980469 9.765625 -0.1953125 C12.84681133 -0.00925052 14.4785909 0.28304047 17 2 C18.60396458 5.20792917 18.47551957 8.51974805 18 12 C16.5 14.4375 16.5 14.4375 14 16 C11.29553695 16.60385912 8.78274541 16.81448364 6 17 C6 19.31 6 21.62 6 24 C4.02 24 2.04 24 0 24 C0 16.08 0 8.16 0 0 Z M7 5 C6.67 6.65 6.34 8.3 6 10 C9.04913228 11.01111093 9.04913228 11.01111093 12 10 C11.67 8.68 11.34 7.36 11 6 C9.68 5.67 8.36 5.34 7 5 Z " fill="#49A0C8" transform="translate(227,139)"/>
<path d="M0 0 C2.31 0 4.62 0 7 0 C7 4.62 7 9.24 7 14 C7.99 13.67 8.98 13.34 10 13 C10.33 8.71 10.66 4.42 11 0 C13.31 0 15.62 0 18 0 C18 6.27 18 12.54 18 19 C15.69 19 13.38 19 11 19 C9.7625 19.226875 8.525 19.45375 7.25 19.6875 C4 20 4 20 2.125 18.75 C-0.37236274 14.86521351 -0.10366539 11.29952797 -0.0625 6.8125 C-0.05347656 5.54019531 -0.04445313 4.26789063 -0.03515625 2.95703125 C-0.02355469 1.98121094 -0.01195313 1.00539062 0 0 Z " fill="#40A1CD" transform="translate(110,144)"/>
<path d="M0 0 C2.875 2.0625 2.875 2.0625 5 5 C5.3125 8.8125 5.3125 8.8125 5 12 C0.545 12.495 0.545 12.495 -4 13 C-2.88625 13.0825 -1.7725 13.165 -0.625 13.25 C3 14 3 14 4.4375 16.0625 C4.623125 16.701875 4.80875 17.34125 5 18 C1.92859569 19.81205858 -0.02777299 20.22518386 -3.5625 19.8125 C-4.32691406 19.73644531 -5.09132813 19.66039062 -5.87890625 19.58203125 C-8.41474463 18.88619346 -9.38742428 18.05370586 -11 16 C-12.20190901 12.39427296 -12.32670315 9.7897565 -12 6 C-8.63646389 0.84257796 -6.18392951 -0.72752112 0 0 Z M-4 5 C-4.33 5.66 -4.66 6.32 -5 7 C-3.68 6.67 -2.36 6.34 -1 6 C-1.99 5.67 -2.98 5.34 -4 5 Z " fill="#3CA6D5" transform="translate(272,144)"/>
<path d="M0 0 C0.99 0.66 1.98 1.32 3 2 C2.67 3.32 2.34 4.64 2 6 C-0.97 5.505 -0.97 5.505 -4 5 C-4 5.66 -4 6.32 -4 7 C-3.236875 7.0825 -2.47375 7.165 -1.6875 7.25 C1 8 1 8 2.875 9.75 C4 12 4 12 3.9375 14.5625 C2.73134336 17.69850725 2.08851354 18.61016891 -1 20 C-4.09521553 20.08812002 -7.03159883 19.90541966 -10 19 C-10.66 18.01 -11.32 17.02 -12 16 C-11.01 15.01 -10.02 14.02 -9 13 C-7.02 13.66 -5.04 14.32 -3 15 C-3 14.34 -3 13.68 -3 13 C-3.94875 12.731875 -4.8975 12.46375 -5.875 12.1875 C-9 11 -9 11 -11 8 C-10.8125 4.9375 -10.8125 4.9375 -10 2 C-6.31282562 -0.45811625 -4.35654296 -0.31118164 0 0 Z " fill="#3CA2D2" transform="translate(330,144)"/>
<path d="M0 0 C2.4375 1 2.4375 1 4 2 C3.34 3.32 2.68 4.64 2 6 C-0.97 5.505 -0.97 5.505 -4 5 C-4 5.66 -4 6.32 -4 7 C-3.236875 7.103125 -2.47375 7.20625 -1.6875 7.3125 C1.28160312 8.07203801 2.4219701 8.36995016 4 11 C3.9375 14.5625 3.9375 14.5625 3 18 C0.67046088 19.98442221 -0.95235245 19.99602937 -4 20.25 C-6.90515837 20.00790347 -8.5463495 19.50993877 -11 18 C-10.67 16.68 -10.34 15.36 -10 14 C-6 14 -6 14 -3 15 C-3 14.34 -3 13.68 -3 13 C-4.175625 12.566875 -4.175625 12.566875 -5.375 12.125 C-8 11 -8 11 -10 9 C-10.3267107 5.92891945 -10.48138276 3.84949899 -8.9375 1.125 C-5.91744134 -0.62858245 -3.41882931 -0.29989731 0 0 Z " fill="#3CA3D3" transform="translate(154,144)"/>
<path d="M0 0 C1.65 0.33 3.3 0.66 5 1 C5 2.32 5 3.64 5 5 C6.32 5 7.64 5 9 5 C9 6.98 9 8.96 9 11 C7.68 11 6.36 11 5 11 C5.33 13.31 5.66 15.62 6 18 C6.99 18.33 7.98 18.66 9 19 C9.38218767 20.65614657 9.71395102 22.32457024 10 24 C9 25 9 25 5.625 25.25 C2 25 2 25 0.31640625 23.83984375 C-1.47726451 21.33296266 -1.50779992 19.3674013 -1.6875 16.3125 C-1.75324219 15.31863281 -1.81898438 14.32476562 -1.88671875 13.30078125 C-1.92410156 12.54152344 -1.96148437 11.78226563 -2 11 C-2.66 11 -3.32 11 -4 11 C-4 9.35 -4 7.7 -4 6 C-3.01 5.67 -2.02 5.34 -1 5 C-0.67 3.35 -0.34 1.7 0 0 Z " fill="#39AADC" transform="translate(295,139)"/>
<path d="M0 0 C0.70125 -0.02578125 1.4025 -0.0515625 2.125 -0.078125 C2.74375 0.03015625 3.3625 0.1384375 4 0.25 C4.66 1.24 5.32 2.23 6 3.25 C5.01 4.735 5.01 4.735 4 6.25 C0.875 6.4375 0.875 6.4375 -2 6.25 C-2 8.89 -2 11.53 -2 14.25 C-0.02 13.92 1.96 13.59 4 13.25 C4.66 14.9 5.32 16.55 6 18.25 C2.22343644 20.76770904 0.43085299 20.40397064 -3.90625 19.77734375 C-6 19.25 -6 19.25 -8 17.6875 C-9.41890374 14.22892212 -10.25767372 10.97911135 -10 7.25 C-7.3529919 2.22981223 -5.64347985 0.12448853 0 0 Z " fill="#43A5D1" transform="translate(205,143.75)"/>
<path d="M0 0 C1.98 0 3.96 0 6 0 C6 6.27 6 12.54 6 19 C4.02 19.33 2.04 19.66 0 20 C-1.5220959 18.4779041 -1.12959521 17.11789918 -1.1328125 15 C-1.13410156 14.195625 -1.13539063 13.39125 -1.13671875 12.5625 C-1.13285156 11.716875 -1.12898437 10.87125 -1.125 10 C-1.12886719 9.154375 -1.13273438 8.30875 -1.13671875 7.4375 C-1.13542969 6.633125 -1.13414062 5.82875 -1.1328125 5 C-1.13168457 4.2575 -1.13055664 3.515 -1.12939453 2.75 C-1 1 -1 1 0 0 Z " fill="#37A9DF" transform="translate(174,144)"/>
<path d="M0 0 C0.8125 1.6875 0.8125 1.6875 1 4 C-1.53266085 7.22338654 -3.33292128 8.78191657 -7.25 10.0625 C-8.1575 10.371875 -9.065 10.68125 -10 11 C-10.96877057 13.03243548 -10.96877057 13.03243548 -11 15 C-11.66 15 -12.32 15 -13 15 C-13 10.71 -13 6.42 -13 2 C-11.1746875 2.3403125 -11.1746875 2.3403125 -9.3125 2.6875 C-6.02379309 3.11976343 -5.12653537 3.06063153 -2 1.5625 C-1.34 1.046875 -0.68 0.53125 0 0 Z " fill="#43A2D4" transform="translate(242,146)"/>
<path d="M0 0 C1.98 0 3.96 0 6 0 C6 6.27 6 12.54 6 19 C4.02 19.33 2.04 19.66 0 20 C-1.5220959 18.4779041 -1.12959521 17.11789918 -1.1328125 15 C-1.13410156 14.195625 -1.13539063 13.39125 -1.13671875 12.5625 C-1.13285156 11.716875 -1.12898437 10.87125 -1.125 10 C-1.12886719 9.154375 -1.13273438 8.30875 -1.13671875 7.4375 C-1.13542969 6.633125 -1.13414062 5.82875 -1.1328125 5 C-1.13168457 4.2575 -1.13055664 3.515 -1.12939453 2.75 C-1 1 -1 1 0 0 Z M1 1 C1 6.61 1 12.22 1 18 C2.32 18 3.64 18 5 18 C5 12.39 5 6.78 5 1 C3.68 1 2.36 1 1 1 Z " fill="#499CBF" transform="translate(174,144)"/>
<path d="M0 0 C1.98 0.495 1.98 0.495 4 1 C3.67 5.95 3.34 10.9 3 16 C1.68 15.67 0.36 15.34 -1 15 C-1.02685412 12.68756208 -1.04632841 10.3750373 -1.0625 8.0625 C-1.07410156 6.77472656 -1.08570312 5.48695313 -1.09765625 4.16015625 C-1 1 -1 1 0 0 Z " fill="#38A9DF" transform="translate(68,146)"/>
<path d="M0 0 C3.1875 0.4375 3.1875 0.4375 6.0625 2.5 C8.65798413 6.08787512 8.6122346 8.1052071 8.1875 12.4375 C4.8875 12.4375 1.5875 12.4375 -1.8125 12.4375 C-1.8125 12.1075 -1.8125 11.7775 -1.8125 11.4375 C0.8275 11.4375 3.4675 11.4375 6.1875 11.4375 C5.84522428 8.46684491 5.84522428 8.46684491 5.1875 5.4375 C4.5275 5.1075 3.8675 4.7775 3.1875 4.4375 C3.1875 6.0875 3.1875 7.7375 3.1875 9.4375 C1.8675 9.4375 0.5475 9.4375 -0.8125 9.4375 C-0.8125 8.4375 -0.8125 7.4375 -0.8125 6.4375 C-1.4725 5.7775 -2.1325 5.1175 -2.8125 4.4375 C-1.1625 4.4375 0.4875 4.4375 2.1875 4.4375 C2.1875 3.4475 2.1875 2.4575 2.1875 1.4375 C-0.1225 1.7675 -2.4325 2.0975 -4.8125 2.4375 C-2.8125 0.4375 -2.8125 0.4375 0 0 Z " fill="#459FC8" transform="translate(268.8125,143.5625)"/>
<path d="M0 0 C0.99 0 1.98 0 3 0 C3 1.32 3 2.64 3 4 C5.31 4 7.62 4 10 4 C10 4.66 10 5.32 10 6 C10.99 6 11.98 6 13 6 C13.33 5.01 13.66 4.02 14 3 C14.33 3 14.66 3 15 3 C15 4.65 15 6.3 15 8 C10.38 8 5.76 8 1 8 C0.67 5.36 0.34 2.72 0 0 Z " fill="#3CAAD7" transform="translate(112,154)"/>
<path d="M0 0 C1.65 0.33 3.3 0.66 5 1 C5 2.32 5 3.64 5 5 C6.32 5 7.64 5 9 5 C9 6.98 9 8.96 9 11 C7.68 10.67 6.36 10.34 5 10 C5.99 10 6.98 10 8 10 C8 9.01 8 8.02 8 7 C6.35 7.33 4.7 7.66 3 8 C2.34 7.01 1.68 6.02 1 5 C0.01 5.33 -0.98 5.66 -2 6 C-2 7.65 -2 9.3 -2 11 C-2.66 11 -3.32 11 -4 11 C-4 9.35 -4 7.7 -4 6 C-3.01 5.67 -2.02 5.34 -1 5 C-0.67 3.35 -0.34 1.7 0 0 Z " fill="#46A2CB" transform="translate(295,139)"/>
<path d="M0 0 C0.33 0 0.66 0 1 0 C0.75 3.375 0.75 3.375 0 7 C-2.32953912 8.98442221 -3.95235245 8.99602937 -7 9.25 C-9.90515837 9.00790347 -11.5463495 8.50993877 -14 7 C-13.67 5.68 -13.34 4.36 -13 3 C-9 3 -9 3 -6 5 C-7.32 5 -8.64 5 -10 5 C-10 5.66 -10 6.32 -10 7 C-7.69 7 -5.38 7 -3 7 C-3 6.01 -3 5.02 -3 4 C-2.01 4 -1.02 4 0 4 C0 2.68 0 1.36 0 0 Z " fill="#49A0C4" transform="translate(157,155)"/>
<path d="M0 0 C5.875 0.875 5.875 0.875 7 2 C7.07271741 4.35313555 7.08370868 6.70833668 7.0625 9.0625 C7.05347656 10.35285156 7.04445313 11.64320313 7.03515625 12.97265625 C7.02355469 13.97167969 7.01195313 14.97070312 7 16 C5.68 16 4.36 16 3 16 C3.09539062 15.15695313 3.19078125 14.31390625 3.2890625 13.4453125 C3.39992188 12.34960938 3.51078125 11.25390625 3.625 10.125 C3.74101563 9.03445312 3.85703125 7.94390625 3.9765625 6.8203125 C3.98429687 5.88960937 3.99203125 4.95890625 4 4 C3.34 3.34 2.68 2.68 2 2 C1.34 1.34 0.68 0.68 0 0 Z " fill="#35AAE1" transform="translate(86,146)"/>
<path d="M0 0 C2.475 0.495 2.475 0.495 5 1 C5.125 3.875 5.125 3.875 5 7 C4.34 7.66 3.68 8.32 3 9 C2.3574765 11.06874034 2.3574765 11.06874034 2 13 C1.34 13 0.68 13 0 13 C0 8.71 0 4.42 0 0 Z " fill="#34ACE1" transform="translate(229,148)"/>
<path d="M0 0 C0 1.65 0 3.3 0 5 C-2.375 5.625 -2.375 5.625 -5 6 C-5.66 5.34 -6.32 4.68 -7 4 C-7 2.68 -7 1.36 -7 0 C-4.3333581 -1.33332095 -2.83319697 -0.67102033 0 0 Z " fill="#449DC4" transform="translate(180,137)"/>
<path d="M0 0 C1.27875 -0.061875 2.5575 -0.12375 3.875 -0.1875 C4.95394531 -0.23970703 4.95394531 -0.23970703 6.0546875 -0.29296875 C6.69664062 -0.19628906 7.33859375 -0.09960938 8 0 C8.66 0.99 9.32 1.98 10 3 C9.01 4.485 9.01 4.485 8 6 C7.01 5.67 6.02 5.34 5 5 C4.67 4.34 4.34 3.68 4 3 C2.02 3.33 0.04 3.66 -2 4 C-1.34 2.68 -0.68 1.36 0 0 Z " fill="#459ECA" transform="translate(201,144)"/>
<path d="M0 0 C1.79158489 -0.02696365 3.58328473 -0.04637917 5.375 -0.0625 C6.37273437 -0.07410156 7.37046875 -0.08570313 8.3984375 -0.09765625 C11 0 11 0 13 1 C13 1.66 13 2.32 13 3 C8.71 3 4.42 3 0 3 C0 2.01 0 1.02 0 0 Z " fill="#35AAE0" transform="translate(229,141)"/>
<path d="M0 0 C3.5 0.3125 3.5 0.3125 6.5 2.3125 C6.17 3.6325 5.84 4.9525 5.5 6.3125 C4.51 5.9825 3.52 5.6525 2.5 5.3125 C2.83 4.3225 3.16 3.3325 3.5 2.3125 C0.2 2.6425 -3.1 2.9725 -6.5 3.3125 C-3.5 0.3125 -3.5 0.3125 0 0 Z " fill="#469BC3" transform="translate(326.5,143.6875)"/>
<path d="M0 0 C2.97 0 5.94 0 9 0 C9 1.32 9 2.64 9 4 C3.48 4.368 3.48 4.368 1.125 2.5625 C0 1 0 1 0 0 Z " fill="#38AADC" transform="translate(200,159)"/>
<path d="M0 0 C3.03153686 0.32773371 4.61573103 0.64134897 6.875 2.75 C8 5 8 5 7.8125 7.6875 C7 10 7 10 5 11 C4.67 8.69 4.34 6.38 4 4 C3.01 3.67 2.02 3.34 1 3 C0.67 2.01 0.34 1.02 0 0 Z " fill="#4AA0C6" transform="translate(326,151)"/>
<path d="M0 0 C0.99 0 1.98 0 3 0 C3 1.32 3 2.64 3 4 C3.66 4 4.32 4 5 4 C5 4.66 5 5.32 5 6 C5.66 6 6.32 6 7 6 C7 6.66 7 7.32 7 8 C5.02 8 3.04 8 1 8 C0.67 5.36 0.34 2.72 0 0 Z " fill="#35AAE2" transform="translate(112,154)"/>
<path d="M0 0 C2 2 2 2 2.1953125 4.1640625 C2.16050781 5.38222656 2.16050781 5.38222656 2.125 6.625 C2.10695313 7.44226563 2.08890625 8.25953125 2.0703125 9.1015625 C2.04710938 9.72804687 2.02390625 10.35453125 2 11 C1.01 11 0.02 11 -1 11 C-1.02688151 9.35425434 -1.04634123 7.70838587 -1.0625 6.0625 C-1.07410156 5.14597656 -1.08570312 4.22945312 -1.09765625 3.28515625 C-1 1 -1 1 0 0 Z " fill="#39A9E0" transform="translate(80,151)"/>
<path d="M0 0 C3.5 -0.3125 3.5 -0.3125 7 0 C7.66 0.66 8.32 1.32 9 2 C8.34 2.66 7.68 3.32 7 4 C4.8359375 3.9765625 4.8359375 3.9765625 2.375 3.625 C1.55773437 3.51414063 0.74046875 3.40328125 -0.1015625 3.2890625 C-0.72804687 3.19367188 -1.35453125 3.09828125 -2 3 C-1.34 2.01 -0.68 1.02 0 0 Z " fill="#3AA7DA" transform="translate(149,146)"/>
<path d="M0 0 C0.33 0 0.66 0 1 0 C1.66 2.64 2.32 5.28 3 8 C0.525 7.01 0.525 7.01 -2 6 C-1.34 5.67 -0.68 5.34 0 5 C0 3.35 0 1.7 0 0 Z M-5 5 C-4.01 5.33 -3.02 5.66 -2 6 C-2 7.98 -2 9.96 -2 12 C-2.99 11.34 -3.98 10.68 -5 10 C-5.1875 7.375 -5.1875 7.375 -5 5 Z " fill="#47A1CF" transform="translate(299,151)"/>
<path d="M0 0 C0.66 1.32 1.32 2.64 2 4 C0.948125 3.835 -0.10375 3.67 -1.1875 3.5 C-4.20468796 3.10430322 -6.97093972 2.90821029 -10 3 C-8.0130571 -0.97388579 -3.91761109 -0.08705802 0 0 Z " fill="#479BC3" transform="translate(91,144)"/>
<path d="M0 0 C0.66 0.33 1.32 0.66 2 1 C1.34 2.32 0.68 3.64 0 5 C3.3 5 6.6 5 10 5 C8 7 8 7 5.90625 7.08203125 C5.1121875 6.99308594 4.318125 6.90414062 3.5 6.8125 C2.30890625 6.69841797 2.30890625 6.69841797 1.09375 6.58203125 C-1 6 -1 6 -3 3 C-2.01 2.01 -1.02 1.02 0 0 Z " fill="#529AB8" transform="translate(321,157)"/>
<path d="M0 0 C2.86724686 0.57344937 3.8614515 0.8614515 6 3 C5.7578125 4.9453125 5.7578125 4.9453125 5.125 7.125 C4.92132813 7.84945312 4.71765625 8.57390625 4.5078125 9.3203125 C4.34023437 9.87460938 4.17265625 10.42890625 4 11 C3.67 11 3.34 11 3 11 C3.020625 10.0925 3.04125 9.185 3.0625 8.25 C3.01080926 5.56208142 2.92659146 3.50179694 2 1 C1.34 0.67 0.68 0.34 0 0 Z " fill="#41A6D4" transform="translate(85,149)"/>
<path d="M0 0 C0.625 1.8125 0.625 1.8125 1 4 C0.01 5.485 0.01 5.485 -1 7 C-2.32 6.67 -3.64 6.34 -5 6 C-4.34 6 -3.68 6 -3 6 C-3 4.68 -3 3.36 -3 2 C-2.01 1.34 -1.02 0.68 0 0 Z " fill="#36ACE4" transform="translate(242,146)"/>
<path d="M0 0 C0.33 0 0.66 0 1 0 C1 2.31 1 4.62 1 7 C-0.65 6.67 -2.3 6.34 -4 6 C-3.67 4.68 -3.34 3.36 -3 2 C-3 2.99 -3 3.98 -3 5 C-2.34 5 -1.68 5 -1 5 C-0.67 3.35 -0.34 1.7 0 0 Z " fill="#49A2CA" transform="translate(232,156)"/>
<path d="M0 0 C1.485 0.99 1.485 0.99 3 2 C3 2.66 3 3.32 3 4 C4.32 4.33 5.64 4.66 7 5 C6.67 5.66 6.34 6.32 6 7 C4.35 6.67 2.7 6.34 1 6 C0.67 4.02 0.34 2.04 0 0 Z " fill="#3CA9E2" transform="translate(324,150)"/>
<path d="M0 0 C1.8871875 0.061875 1.8871875 0.061875 3.8125 0.125 C-0.1875 2.125 -0.1875 2.125 -4.1875 4.125 C-5.1775 3.465 -6.1675 2.805 -7.1875 2.125 C-4.09861478 0.06574319 -3.47814073 -0.1140374 0 0 Z " fill="#35AEE4" transform="translate(326.1875,145.875)"/>
<path d="M0 0 C0 0.99 0 1.98 0 3 C-2.31 3.33 -4.62 3.66 -7 4 C-7 3.01 -7 2.02 -7 1 C-4.50935112 0.31292445 -2.62113708 0 0 0 Z " fill="#37AADF" transform="translate(271,145)"/>
<path d="M0 0 C2.00720923 0.28674418 4.0085944 0.61866701 6 1 C6 1.66 6 2.32 6 3 C4.35 3 2.7 3 1 3 C0.34 4.32 -0.32 5.64 -1 7 C-1.04254356 5.00045254 -1.04080783 2.99958364 -1 1 C-0.67 0.67 -0.34 0.34 0 0 Z " fill="#6DBAD0" transform="translate(67,144)"/>
<path d="M0 0 C0.66 0 1.32 0 2 0 C1.67 4.29 1.34 8.58 1 13 C0.34 12.67 -0.32 12.34 -1 12 C-1.02687279 10.18757948 -1.04633715 8.37504767 -1.0625 6.5625 C-1.07410156 5.55316406 -1.08570312 4.54382813 -1.09765625 3.50390625 C-1 1 -1 1 0 0 Z " fill="#469AC0" transform="translate(82,150)"/>
<path d="M0 0 C0.99 0 1.98 0 3 0 C3 0.66 3 1.32 3 2 C3.804375 2.12375 4.60875 2.2475 5.4375 2.375 C6.7059375 2.684375 6.7059375 2.684375 8 3 C8.33 3.66 8.66 4.32 9 5 C5.625 4.75 5.625 4.75 2 4 C0.5625 1.9375 0.5625 1.9375 0 0 Z " fill="#479FCF" transform="translate(147,149)"/>
</svg>
