<?xml version="1.0" encoding="UTF-8"?>
<svg version="1.1" xmlns="http://www.w3.org/2000/svg" width="400" height="300">
<path d="M0 0 C132 0 264 0 400 0 C400 99 400 198 400 300 C268 300 136 300 0 300 C0 201 0 102 0 0 Z " fill="#36ABE1" transform="translate(0,0)"/>
<path d="M0 0 C0.79164551 0.00563965 1.58329102 0.0112793 2.39892578 0.01708984 C17.29556253 0.32295695 30.32729625 5.60027794 41.12109375 15.9609375 C47.83695043 23.16761436 52.20474037 31.31535268 52.6875 41.3125 C52.12697609 52.47813634 46.60641521 61.54713774 38.5625 69.0625 C23.65092361 81.22116998 6.90085505 82.77745586 -11.6875 81.3125 C-24.70535776 79.51279616 -36.5088672 71.77685054 -45.390625 62.39453125 C-51.24743802 54.53564439 -52.60264858 45.05516797 -51.4140625 35.4765625 C-48.622674 23.32051579 -41.08547109 14.55739357 -30.75 7.9375 C-25.91735404 5.22101267 -21.03488209 3.67214444 -15.6875 2.3125 C-14.61242187 1.96316406 -13.53734375 1.61382812 -12.4296875 1.25390625 C-8.1748616 0.18353773 -4.36471222 -0.03269098 0 0 Z " fill="#F3FAFD" transform="translate(199.6875,86.6875)"/>
<path d="M0 0 C2.88190326 3.01690077 3.13353502 6.39544816 3.66796875 10.3828125 C3.85117676 11.66055542 3.85117676 11.66055542 4.03808594 12.96411133 C5.60559375 25.43721449 5.74001262 38.46666134 4.91796875 51.0078125 C3.32902803 52.59675322 1.66995451 52.17779661 -0.51953125 52.1953125 C-1.32261719 52.20949219 -2.12570313 52.22367188 -2.953125 52.23828125 C-5.08203125 52.0078125 -5.08203125 52.0078125 -7.08203125 50.0078125 C-7.49267578 47.39404297 -7.49267578 47.39404297 -7.71484375 44.125 C-7.79863281 42.95839844 -7.88242188 41.79179687 -7.96875 40.58984375 C-8.04738281 39.36652344 -8.12601563 38.14320313 -8.20703125 36.8828125 C-8.29339844 35.65175781 -8.37976563 34.42070312 -8.46875 33.15234375 C-8.68138088 30.1046345 -8.88543779 27.05659146 -9.08203125 24.0078125 C-9.34757812 24.99523437 -9.613125 25.98265625 -9.88671875 27 C-10.24313878 28.29436748 -10.59992891 29.58863309 -10.95703125 30.8828125 C-11.13105469 31.53378906 -11.30507812 32.18476563 -11.484375 32.85546875 C-12.85546875 37.78125 -12.85546875 37.78125 -15.08203125 40.0078125 C-18.99274868 40.34787488 -21.90910266 40.40318547 -25.08203125 38.0078125 C-26.19189572 35.2448341 -27.04913781 32.73076993 -27.83203125 29.8828125 C-28.57453125 27.2840625 -29.31703125 24.6853125 -30.08203125 22.0078125 C-30.74203125 29.9278125 -31.40203125 37.8478125 -32.08203125 46.0078125 C-41.08203125 45.0078125 -41.08203125 45.0078125 -44.08203125 42.0078125 C-44.65966793 38.04687527 -44.24577466 33.99905821 -44.08203125 30.0078125 C-44.04970544 28.39455245 -44.01852473 26.78126918 -43.98828125 25.16796875 C-43.93814931 23.46869131 -43.88606577 21.76947032 -43.83203125 20.0703125 C-43.81817383 19.25369141 -43.80431641 18.43707031 -43.79003906 17.59570312 C-43.57854265 12.52397727 -42.93913055 9.65298326 -39.08203125 6.0078125 C-35.09165984 4.1861212 -31.44633924 3.32892015 -27.08203125 4.0078125 C-24.19597378 7.91071923 -22.84242858 12.24915627 -21.39453125 16.8203125 C-21.16958984 17.51318359 -20.94464844 18.20605469 -20.71289062 18.91992188 C-20.16374216 20.61410332 -19.62211263 22.31071883 -19.08203125 24.0078125 C-18.87839966 23.07714966 -18.87839966 23.07714966 -18.6706543 22.12768555 C-18.0483396 19.3142332 -17.40915198 16.50487863 -16.76953125 13.6953125 C-16.55619141 12.71884766 -16.34285156 11.74238281 -16.12304688 10.73632812 C-15.90712891 9.79853516 -15.69121094 8.86074219 -15.46875 7.89453125 C-15.27498779 7.03045654 -15.08122559 6.16638184 -14.8815918 5.27612305 C-13.99608758 2.7639949 -13.16391045 1.64264489 -11.08203125 0.0078125 C-7.16189094 -1.29890094 -3.82818545 -1.82431352 0 0 Z " fill="#3AADE1" transform="translate(199.08203125,102.9921875)"/>
<path d="M0 0 C9.3401035 2.59898532 15.65592922 6.98389383 21 15 C21.86489103 19.77966098 21.52114492 23.13685372 19 27.3125 C15.2327046 31.11154227 10.85917687 33.72473763 5.484375 34.2421875 C3.32142029 34.24898924 1.1587532 34.13492207 -1 34 C-1 38.95 -1 43.9 -1 49 C-5.40676845 50.76270738 -7.45463586 51.50504046 -12 51 C-14.10360237 47.84459645 -14.25400799 47.0742137 -14.2746582 43.46850586 C-14.28419022 42.55423325 -14.29372223 41.63996063 -14.30354309 40.69798279 C-14.30263168 39.71354691 -14.30172028 38.72911102 -14.30078125 37.71484375 C-14.30506638 36.70281387 -14.3093515 35.690784 -14.31376648 34.64808655 C-14.31951 32.50880685 -14.32000989 30.36950762 -14.31567383 28.23022461 C-14.31250893 24.946767 -14.33599024 21.66420586 -14.36132812 18.38085938 C-14.36360051 16.30468864 -14.3643049 14.22851547 -14.36328125 12.15234375 C-14.372491 11.16588364 -14.38170074 10.17942352 -14.39118958 9.16307068 C-14.38496078 8.25195023 -14.37873199 7.34082977 -14.37231445 6.40209961 C-14.37294388 5.59840439 -14.3735733 4.79470917 -14.3742218 3.96665955 C-14.25072861 3.3176619 -14.12723541 2.66866425 -14 2 C-9.45600813 -1.02932791 -5.32504026 -0.64141012 0 0 Z " fill="#3AACE1" transform="translate(226,103)"/>
<path d="M0 0 C3.86542531 0.17772404 3.86542531 0.17772404 6.9375 -0.8125 C10 -1 10 -1 12.671875 0.9375 C15.78940243 5.03840856 15.58426347 7.82459504 15.3125 12.8125 C15.28994141 13.60076172 15.26738281 14.38902344 15.24414062 15.20117188 C15.18554161 17.13493929 15.09586827 19.06772167 15 21 C12.69 21 10.38 21 8 21 C7.67 16.05 7.34 11.1 7 6 C5.68 6.33 4.36 6.66 3 7 C2.67 11.62 2.34 16.24 2 21 C-0.31 21 -2.62 21 -5 21 C-5 15.72 -5 10.44 -5 5 C-6.65 5.33 -8.3 5.66 -10 6 C-10 10.95 -10 15.9 -10 21 C-12.31 21 -14.62 21 -17 21 C-17 14.07 -17 7.14 -17 0 C-14.33333333 0 -11.66666667 0 -9 0 C-5.9386005 -1.53069975 -3.3197489 -0.51513345 0 0 Z " fill="#F4FAFD" transform="translate(63,183)"/>
<path d="M0 0 C15.75757576 0 15.75757576 0 20 4 C21 5 21 5 21.375 8.75 C21.34890183 12.38417034 21.07014285 12.91324437 18.625 15.9375 C14.51092937 19.16998406 12.20565883 19.09640109 7 19 C7 21.97 7 24.94 7 28 C4.69 28 2.38 28 0 28 C0 18.76 0 9.52 0 0 Z " fill="#F4FAFD" transform="translate(232,176)"/>
<path d="M0 0 C1.40422068 4.21266205 0.04976298 6.39658898 -1.64453125 10.375 C-7.30461394 21.33631288 -17.56122175 27.8685049 -28.7890625 32.0546875 C-44.27293449 36.61319969 -61.68137655 34.85328441 -75.86328125 27.33984375 C-78.73880976 25.53672441 -80.7962579 23.57103245 -83 21 C-78.14278543 20.66849871 -75.35850033 21.52804624 -71.125 23.875 C-59.42972375 30.33079249 -44.34002898 31.33773696 -31.42578125 27.97265625 C-21.0727724 24.69638763 -12.44806817 18.94816402 -7.1875 9.25 C-6.8265625 8.51394531 -6.465625 7.77789062 -6.09375 7.01953125 C-4.50743222 4.09050879 -2.47996389 2.19653944 0 0 Z " fill="#43B0E3" transform="translate(247,131)"/>
<path d="M0 0 C2.65653537 2.19164168 3.8493812 3.64443084 4.234375 7.109375 C4.2483115 9.07442084 4.13292167 11.03940539 4 13 C0.04 13 -3.92 13 -8 13 C-7.67 13.66 -7.34 14.32 -7 15 C-4.36 15 -1.72 15 1 15 C1.66 16.65 2.32 18.3 3 20 C-1.44481364 22.36130725 -5.25088967 22.39095281 -10 21 C-12.93087207 18.74548302 -13.82814288 17.51557135 -15 14 C-15.67195988 7.16840786 -15.67195988 7.16840786 -13.953125 4.1796875 C-9.69675398 -1.00307016 -6.4144764 -1.81278681 0 0 Z " fill="#F0F9FC" transform="translate(286,183)"/>
<path d="M0 0 C2.31 0 4.62 0 7 0 C7.33 4.95 7.66 9.9 8 15 C9.32 14.67 10.64 14.34 12 14 C12.33 9.38 12.66 4.76 13 0 C15.31 0 17.62 0 20 0 C20 6.93 20 13.86 20 21 C18.02 21 16.04 21 14 21 C14 20.34 14 19.68 14 19 C13.29875 19.515625 12.5975 20.03125 11.875 20.5625 C8.31607124 22.34196438 6.74980806 22.2227635 3 21 C1.00424273 19.19119891 0.09519774 17.77348161 -0.23632812 15.07983398 C-0.29541983 12.7958886 -0.26134291 10.53345003 -0.1875 8.25 C-0.17396484 7.45722656 -0.16042969 6.66445312 -0.14648438 5.84765625 C-0.11125223 3.89814436 -0.05744821 1.94898374 0 0 Z " fill="#F2F9FD" transform="translate(97,183)"/>
<path d="M0 0 C2.27237098 1.67393811 4.17899576 3.51911345 6.12109375 5.5625 C-0.65718633 3.68049447 -7.17153157 1.35710432 -13.703125 -1.25390625 C-27.08319324 -6.24057375 -39.63900989 -5.54361578 -52.87890625 -0.4375 C-55.2889405 0.79437486 -57.59315708 2.11370931 -59.90234375 3.5234375 C-62.88690637 5.09239729 -65.53843607 5.3492785 -68.87890625 5.5625 C-68.87890625 4.9025 -68.87890625 4.2425 -68.87890625 3.5625 C-49.87816158 -12.79925236 -20.62078601 -12.79671037 0 0 Z " fill="#45B1E3" transform="translate(231.87890625,99.4375)"/>
<path d="M0 0 C2.4375 1 2.4375 1 4 2 C3.34 3.65 2.68 5.3 2 7 C-0.31 6.67 -2.62 6.34 -5 6 C-5 6.66 -5 7.32 -5 8 C-4.071875 8.28875 -3.14375 8.5775 -2.1875 8.875 C1 10 1 10 4 12 C4.36431186 15.33952535 4.610675 17.85498438 3 20.875 C-0.16677993 22.65631371 -3.41787644 23.14635135 -7 23 C-10 21.5625 -10 21.5625 -12 20 C-11.67 18.68 -11.34 17.36 -11 16 C-8.03 16.33 -5.06 16.66 -2 17 C-2.90625 14.6875 -2.90625 14.6875 -5.875 13.5625 C-10.62162162 11.18918919 -10.62162162 11.18918919 -12 9 C-11.92922353 5.60272932 -11.62034372 3.71578121 -9.375 1.125 C-6.08741683 -0.43227624 -3.59699696 -0.32116044 0 0 Z " fill="#F0F9FC" transform="translate(351,182)"/>
<path d="M0 0 C2.375 1 2.375 1 4 2 C3.625 3.9375 3.625 3.9375 3 6 C0.53721199 7.231394 -1.2795055 7.07159196 -4 7 C-3.15115234 7.52400391 -3.15115234 7.52400391 -2.28515625 8.05859375 C-1.55167969 8.51363281 -0.81820312 8.96867188 -0.0625 9.4375 C0.66839844 9.88996094 1.39929688 10.34242188 2.15234375 10.80859375 C4 12 4 12 5 13 C4.75 16.4375 4.75 16.4375 4 20 C0.76085771 22.15942819 -0.24859733 22.27232978 -4 22.25 C-4.86625 22.25515625 -5.7325 22.2603125 -6.625 22.265625 C-9 22 -9 22 -12 20 C-11.34 18.68 -10.68 17.36 -10 16 C-7.36 16.33 -4.72 16.66 -2 17 C-3.95481784 14.82798018 -5.59374463 13.6623805 -8.1875 12.1875 C-11 10 -11 10 -11.6875 7 C-11 4 -11 4 -8.875 1.625 C-5.52911231 -0.26615391 -3.78521564 -0.48321902 0 0 Z " fill="#F2F9FD" transform="translate(147,182)"/>
<path d="M0 0 C1.2065625 0.0309375 1.2065625 0.0309375 2.4375 0.0625 C2.4375 2.0425 2.4375 4.0225 2.4375 6.0625 C4.4175 6.0625 6.3975 6.0625 8.4375 6.0625 C8.4375 7.7125 8.4375 9.3625 8.4375 11.0625 C6.4575 11.0625 4.4775 11.0625 2.4375 11.0625 C2.7675 14.3625 3.0975 17.6625 3.4375 21.0625 C4.7575 21.3925 6.0775 21.7225 7.4375 22.0625 C7.7675 23.7125 8.0975 25.3625 8.4375 27.0625 C7.00166999 27.17086453 5.5634798 27.24826167 4.125 27.3125 C3.32449219 27.35890625 2.52398437 27.4053125 1.69921875 27.453125 C-0.5625 27.0625 -0.5625 27.0625 -2.34375 25.4375 C-3.90632375 22.39248448 -3.86102942 20.2174021 -3.75 16.8125 C-3.72292969 15.73484375 -3.69585937 14.6571875 -3.66796875 13.546875 C-3.63316406 12.72703125 -3.59835937 11.9071875 -3.5625 11.0625 C-4.5525 11.0625 -5.5425 11.0625 -6.5625 11.0625 C-6.5625 9.4125 -6.5625 7.7625 -6.5625 6.0625 C-5.5725 6.0625 -4.5825 6.0625 -3.5625 6.0625 C-3.583125 5.258125 -3.60375 4.45375 -3.625 3.625 C-3.54067676 0.16774696 -3.45725304 0.08432324 0 0 Z " fill="#F9FCFE" transform="translate(313.5625,176.9375)"/>
<path d="M0 0 C0.99 0.66 1.98 1.32 3 2 C2.4375 3.875 2.4375 3.875 1 6 C-2.625 7.25 -2.625 7.25 -6 8 C-6 10.31 -6 12.62 -6 15 C-5.2575 15.12375 -4.515 15.2475 -3.75 15.375 C-1.19858515 15.95486701 0.7267573 16.73708739 3 18 C3 18.99 3 19.98 3 21 C-0.75152514 22.87576257 -4.92417832 22.65264335 -9 22 C-12.40432151 19.34462922 -13.62150515 17.94362218 -14.43359375 13.7734375 C-14.65387257 9.78171829 -14.32113093 7.5390412 -12.25 4.0625 C-8.22447291 0.3724335 -5.50919996 -0.46886808 0 0 Z " fill="#F6FBFD" transform="translate(210,182)"/>
<path d="M0 0 C2.31 0 4.62 0 7 0 C7 6.93 7 13.86 7 21 C4.69 21 2.38 21 0 21 C0 14.07 0 7.14 0 0 Z " fill="#F7FCFE" transform="translate(170,183)"/>
<path d="M0 0 C6 0 6 0 8.375 1.0625 C10 3 10 3 10.4375 6.5625 C10.293125 7.696875 10.14875 8.83125 10 10 C6.3558226 12.4294516 4.28758728 12.16179575 0 12 C0 8.04 0 4.08 0 0 Z " fill="#EDF7FC" transform="translate(224,115)"/>
<path d="M0 0 C1.99954746 -0.04254356 4.00041636 -0.04080783 6 0 C7 1 7 1 7.1875 3.4375 C7 6 7 6 5 8 C2.375 8.125 2.375 8.125 0 8 C0 5.36 0 2.72 0 0 Z " fill="#3DAEE2" transform="translate(239,182)"/>
<path d="M0 0 C0.042721 1.66611905 0.04063832 3.33382885 0 5 C-1 6 -1 6 -3.5 6.125 C-6 6 -6 6 -7 5 C-7.04063832 3.33382885 -7.042721 1.66611905 -7 0 C-4.3333581 -1.33332095 -2.83319697 -0.67102033 0 0 Z " fill="#EFF8FC" transform="translate(177,174)"/>
<path d="M0 0 C1.98 0 3.96 0 6 0 C6 0.99 6 1.98 6 3 C3.69 3 1.38 3 -1 3 C-0.67 2.01 -0.34 1.02 0 0 Z " fill="#41AFE2" transform="translate(278,188)"/>
</svg>
